<svg xmlns="http://www.w3.org/2000/svg" viewBox="0 0 2090.35 238.6"><title>Recurso 1</title><g id="Capa_2" data-name="Capa 2"><g id="Capa_1-2" data-name="Capa 1"><path d="M262.11,5.15q-2.91.32-6.77.48a121.2,121.2,0,0,0-12.09,1.45,32.08,32.08,0,0,0-14,5.47q-5.8,4.19-10.32,14.81l-9.67,24.79L144.43,236H111.23L45.46,51.52l-10-25.12q-4.84-10.3-9.35-14.65T13.22,6.44L0,5.15V0H149.09V5.15L134.92,6.44a70.18,70.18,0,0,0-11.43,2.9q-4.35,1.61-4.35,10,0,5.8,4.67,20t14,39.45q9.34,25.28,28,74.54Q177.1,123,188.69,90.64T204.47,44q4.18-14.32,4.19-21.41,0-8-3.86-11.27a20.88,20.88,0,0,0-9-4.35,56.34,56.34,0,0,0-10.14-1.29q-5-.16-9.18-.48V0h85.65Z"/><path d="M251.6,176.25l-8.05,27q-2.6,9.35-2.6,14.81,0,6,3,8.31a17.7,17.7,0,0,0,7.66,3.25,67.88,67.88,0,0,0,9.09,1.17l8.57.52v4.16H195.74v-4.16l15.42-1q8.62-1,13.06-4.29a20.3,20.3,0,0,0,6.67-8.18q2.22-4.93,5-11.69t4.58-12.21L290.05,45.3h28.58l54.82,148.61,8.05,20.27q3.64,8.06,7.4,11.56t10.52,4.55l10.65,1v4.16H286.68v-4.16q3.12,0,5.59-.13t9-1.17q6.49-1,9.35-2.73t2.86-7.14q0-5.71-3.64-16.37l-9.35-27.54Zm46.77-5.46L275.5,106.88l-22.08,63.91Z"/><path d="M413.93,46.08h74.83v4.16q-3.64.26-7.92.52t-11.3,1.43q-7,1.17-10.52,5.46t-4.29,12.6l-.52,12.47v82.88h1l93.4-119.51H648v4.16h-7.85a35.31,35.31,0,0,0-10.86,1.82A26,26,0,0,0,619,58.55a56.19,56.19,0,0,0-8.11,10.13l-.52,12V198.85l.52,12.47q1.57,15.85,12.17,17.54t14.78,1.95q4.19.26,7.59.52v4.16H570.34v-4.16q1.82-.26,6.89-.52a112.78,112.78,0,0,0,12.21-1.43q7.15-1.17,10.65-5.33t4.29-12.73l.52-12.47V77.52h-1l-123.41,158h-31.7V83.75l-.52-12.47q-.78-8.31-4.55-13.12t-11-6q-7.27-1.17-11.3-1.43t-7.4-.52Z"/><path d="M722.06,137q0,41.05,8.05,68.2t28.06,27.15q9.87,0,15.07-3.9t6.5-8.7a51.7,51.7,0,0,0,1.56-11.3q.26-6.49.26-16.11V182.22q0-11.17-.78-15.07-.78-8.57-3.51-11.69t-8.44-3.9a98.25,98.25,0,0,0-10.39-.91q-4.68-.13-8.57-.39v-4.16H871.45v4.16l-12,.78q-8.06.78-10.78,3.77t-3.51,11.82l-.52,12.21v34l.52,23.38h-3.9q-3.38-7.53-11.82-13.77a30.58,30.58,0,0,0-18.58-6.24q-9.1,0-26,11.17T740.25,238.6q-38.45,0-64.69-27.8t-26.24-69.89q0-44.17,28.84-70.93t73.53-26.76a102,102,0,0,1,46.25,10.91Q819.75,65,822.35,65.57q7.53,0,10.13-5.59a82.71,82.71,0,0,0,4.94-16h5.2v83.92H838.2q-7.79-32.21-25.85-54.56T766.23,51Q743.88,51,733,76.87T722.06,137Z"/><path d="M1088.86,50.24q-3.38.26-7.66.52t-11.43,1.3a15.59,15.59,0,0,0-10.91,6.24q-3.77,5.2-4.55,13.51l-.52,12.47v77.16l-.52,13q-3.9,35.85-19.49,50T985.46,238.6q-43.13,0-66.51-16.37t-23.38-40.79V79.08l-.52-12q-.78-8.31-3.51-11.56t-10.78-4.29l-10.91-1V46.08H991.43v4.16q-3.38.26-7.66.39t-11,1q-6.76.91-9.35,3.77T960,67.13l-.52,12V183.26q0,3.12.26,7.53t1.69,13.64q1.42,9.23,10.39,18.19t24.55,9q21.82,0,32.87-11A55.35,55.35,0,0,0,1044,195.21q3.76-14.29,4-24.42l.26-12.21V83.23l-.52-12.47q-.78-8.57-4.29-13T1033,52.19a111.25,111.25,0,0,0-11.69-1.43q-4.68-.26-8.83-.52V46.08h76.38Z"/><path d="M1113.34,176.25l-8.05,27q-2.6,9.35-2.6,14.81,0,6,3,8.31a17.7,17.7,0,0,0,7.66,3.25,67.88,67.88,0,0,0,9.09,1.17l8.57.52v4.16h-73.53v-4.16l15.42-1q8.62-1,13.06-4.29a20.3,20.3,0,0,0,6.67-8.18q2.22-4.93,5-11.69t4.58-12.21L1151.79,45.3h28.58l54.82,148.61,8.05,20.27q3.64,8.06,7.4,11.56t10.52,4.55l10.65,1v4.16H1148.41v-4.16q3.12,0,5.59-.13t9-1.17q6.49-1,9.35-2.73t2.86-7.14q0-5.71-3.64-16.37l-9.35-27.54Zm46.77-5.46-22.86-63.91-22.08,63.91Z"/><path d="M1375.82,140.91v60.8l.52,12q.78,8.32,4.16,12t11.43,4.68l13.25,1v4.16H1280.47v-4.16h8.05q5.71-.78,10.91-1.43a12.84,12.84,0,0,0,8.18-3.9q3-3.25,3.77-11.56l.52-12V79.34l-.52-12q-.78-8.31-3.9-11.69a14.19,14.19,0,0,0-8.83-4.16,97.87,97.87,0,0,0-9.87-.91q-4.16-.13-7.79-.39V46.08l116.14-.26q24.16,0,39.23,2.08t24.55,8.31A48.47,48.47,0,0,1,1476,71.67a40.58,40.58,0,0,1,5.59,21.43,53.78,53.78,0,0,1-3.25,18.19,39.94,39.94,0,0,1-10,15.59A46.94,46.94,0,0,1,1451.55,137q-10,3.64-31.83,3.64v1.83q13.25,2.87,22.21,5.48a56.77,56.77,0,0,1,16.24,7.56q7.27,5,13.12,14.73a99.64,99.64,0,0,1,9.48,21.38q3.64,11.61,6.5,16.43a8.91,8.91,0,0,0,8.05,4.82q6.75,0,9-8.7a81.22,81.22,0,0,0,2.21-19.88h4.16a104.37,104.37,0,0,1-1.56,20.27q-1.56,7.54-7.79,15.72t-17.8,13.25a61.79,61.79,0,0,1-25.07,5.07q-21,0-33.65-12.11t-15.59-31.78q-3-19.67-4.81-33.22-2.86-15.1-7.53-17.58a23.87,23.87,0,0,0-10.13-2.74Q1381.28,140.92,1375.82,140.91Zm20.78-5.46q9.87-1.56,14.94-14.29a76,76,0,0,0,5.07-28.32,64.11,64.11,0,0,0-5.2-25.07q-5.2-12.34-12.47-14.42A57.65,57.65,0,0,0,1386,51q-5.72-.26-10.13-.52v85.74h8.83A75,75,0,0,0,1396.61,135.46Z"/><path d="M1513.85,235.48v-4.16q3.37,0,7.79-.39t10-1q5.58-.65,8.57-3.9t3.77-11.56l.52-12V79.34l-.52-12q-.78-8.31-3.9-11.69a14.05,14.05,0,0,0-8.7-4.16,94,94,0,0,0-10.13-.91q-4.55-.13-8.18-.39V46.08l96.91-.52a275.34,275.34,0,0,1,57.29,5.72q26.89,5.72,49.62,29.1t22.73,66q0,40.79-20.39,60.15t-43.13,24.16q-22.74,4.81-52.87,4.81ZM1636,53.62q-3.64-1.56-11.3-2.08T1611.54,51h-3.12V230.55c1.21,0,2.34,0,3.38.13s2.34.13,3.9.13a115.3,115.3,0,0,0,18.06-1.3,34.42,34.42,0,0,0,15.33-6.63q7.14-5.32,13.77-28.32a169.48,169.48,0,0,0,6.63-47.16q0-33.77-8.18-60.41T1636,53.62Z"/><path d="M1869.66,235.48H1747.29v-4.16c1.21,0,2.86,0,4.94-.13s5.5-.43,10.26-1,8.14-2,10.13-4.29,3.25-6.06,3.77-11.43l.52-12V79.08l-.52-12q-.78-8.31-3.51-11.56t-10.78-4.29l-14-1V46.08h121.59v4.16l-14,.78q-8.06.78-10.78,3.77t-3.51,11.82l-.52,12V203l.52,12q.78,8.57,3.77,11.56t11,4l13.51.78Z"/><path d="M1985.64,176.25l-9.35,27.54q-3.64,10.66-3.64,16.37,0,5.46,2.86,7.14t9.35,2.73q6.5,1,9,1.17t5.59.13v4.16H1876v-4.16l10.65-1q6.76-1,10.52-4.55t7.4-11.56l8.05-20.27L1967.46,45.3H1996l49.62,148.61q1.83,5.46,4.57,12.21t5,11.69a20.3,20.3,0,0,0,6.67,8.18q4.45,3.25,13.06,4.29l15.42,1v4.16h-73.53v-4.16l8.57-.52a67.87,67.87,0,0,0,9.09-1.17,17.7,17.7,0,0,0,7.66-3.25q3-2.34,3-8.31,0-5.46-2.6-14.81l-8.05-27Zm47-5.46-22.08-63.91-22.86,63.91Z"/></g></g></svg>